<?xml version="1.0" standalone="no"?>
<!DOCTYPE svg PUBLIC "-//W3C//DTD SVG 20010904//EN"
 "http://www.w3.org/TR/2001/REC-SVG-20010904/DTD/svg10.dtd">
<svg version="1.0" xmlns="http://www.w3.org/2000/svg"
 width="1136.000000pt" height="1136.000000pt" viewBox="0 0 1136.000000 1136.000000"
 preserveAspectRatio="xMidYMid meet">
<metadata>
Created by potrace 1.14, written by Peter Selinger 2001-2017
</metadata>
<g transform="translate(0.000000,1136.000000) scale(0.100000,-0.100000)"
fill="#000000" stroke="none">
<path d="M581 10638 l0 -723 20 51 c25 67 75 123 140 159 l54 30 1117 3 c1100
2 1117 2 1170 -18 244 -91 265 -419 37 -545 l-54 -30 -1117 -3 c-1095 -2
-1117 -2 -1170 18 -92 34 -168 116 -188 203 -5 18 -8 -2176 -9 -4875 l-1
-4908 5100 0 5100 0 -1 1903 c0 1898 0 1902 -20 1851 -25 -67 -75 -123 -140
-159 l-54 -30 -1117 -3 c-1100 -2 -1117 -2 -1170 18 -244 91 -265 419 -37 545
l54 30 1117 3 c1095 2 1117 2 1170 -18 92 -34 168 -116 188 -203 5 -18 8 1645
9 3696 l1 3727 -5100 0 -5100 0 1 -722z m8973 -493 c114 -30 190 -111 217
-232 10 -43 9 -64 -4 -119 -24 -95 -67 -151 -152 -194 l-68 -35 -2640 -3
c-2907 -2 -2708 -7 -2803 59 -52 35 -98 111 -115 186 -24 106 35 245 127 299
95 56 -79 53 2754 53 2310 1 2633 -1 2684 -14z m-5750 -1214 c63 -31 122 -90
149 -150 31 -68 30 -179 -2 -245 -31 -63 -90 -122 -150 -150 l-46 -21 -1095
-3 c-744 -2 -1111 1 -1145 8 -67 14 -145 68 -183 125 -110 166 -24 400 166
451 37 10 281 12 1152 11 l1105 -2 49 -24z m3179 9 c243 -91 264 -419 36 -545
l-54 -30 -1117 -3 c-1100 -2 -1117 -2 -1170 18 -195 73 -259 313 -127 473 34
41 104 86 152 97 18 5 526 8 1129 9 1076 1 1098 1 1151 -19z m2818 -2406 c60
-28 125 -93 152 -153 30 -64 30 -178 0 -242 -27 -60 -92 -125 -152 -153 l-46
-21 -4175 0 -4175 0 -46 21 c-246 114 -230 468 26 556 47 16 285 17 4210 15
l4160 -2 46 -21z m-6447 -1189 c114 -30 190 -111 217 -232 10 -43 9 -64 -4
-119 -24 -95 -67 -151 -152 -194 l-68 -35 -1140 -3 c-1255 -3 -1211 -5 -1303
59 -52 35 -98 111 -115 186 -24 106 35 245 127 299 93 55 43 53 1254 53 973 1
1134 -1 1184 -14z m629 -1205 c243 -91 264 -419 36 -545 l-54 -30 -1117 -3
c-1100 -2 -1117 -2 -1170 18 -195 73 -259 313 -127 473 34 41 104 86 152 97
18 5 526 8 1129 9 1076 1 1098 1 1151 -19z m3221 -9 c63 -31 122 -90 149 -150
31 -68 30 -179 -2 -245 -31 -63 -90 -122 -150 -150 l-46 -21 -1095 -3 c-744
-2 -1111 1 -1145 8 -67 14 -145 68 -183 125 -110 166 -24 400 166 451 37 10
281 12 1152 11 l1105 -2 49 -24z m-1850 -1186 c114 -30 190 -111 217 -232 10
-43 9 -64 -4 -119 -24 -95 -67 -151 -152 -194 l-68 -35 -1690 -3 c-1861 -2
-1759 -6 -1853 59 -52 35 -98 111 -115 186 -24 106 35 245 127 299 94 55 -2
53 1804 53 1463 1 1683 -1 1734 -14z m2623 -1475 c125 -76 38 -254 -107 -218
-87 22 -120 121 -63 188 14 18 36 36 47 40 36 15 90 11 123 -10z m-5882 -115
l0 -90 -49 -7 c-33 -5 -58 -15 -75 -33 -25 -25 -26 -30 -31 -183 -8 -212 -23
-241 -154 -291 -24 -9 -44 -20 -45 -26 -1 -5 20 -17 47 -26 67 -23 97 -44 124
-88 21 -32 23 -51 27 -186 2 -106 8 -158 18 -178 16 -32 66 -57 113 -57 l30 0
0 -91 0 -92 -92 6 c-116 7 -180 29 -228 77 -55 55 -72 117 -79 295 -4 89 -12
159 -19 172 -16 28 -54 49 -109 58 l-43 7 0 108 0 107 51 5 c40 4 58 12 82 37
l32 31 6 153 c4 83 10 166 14 182 22 84 81 149 162 176 36 11 161 28 198 25
18 -1 20 -8 20 -91z m7627 69 c150 -36 198 -119 198 -343 1 -183 25 -228 130
-241 l45 -5 3 -105 3 -106 -59 -12 c-103 -21 -122 -60 -122 -248 0 -141 -16
-207 -62 -260 -54 -61 -147 -94 -268 -94 l-60 0 0 90 0 90 31 0 c40 0 90 24
109 52 10 17 16 68 20 184 6 176 10 190 72 238 19 14 55 31 81 37 26 7 47 18
47 24 0 6 -26 19 -57 29 -67 21 -126 76 -137 126 -3 18 -6 85 -6 149 0 64 -5
133 -11 154 -12 46 -57 77 -111 77 l-38 0 0 95 0 94 68 -5 c37 -3 93 -12 124
-20z m-6302 -584 l0 -580 -120 0 -120 0 -1 73 c0 60 -2 69 -12 52 -7 -11 -32
-40 -57 -65 -53 -53 -100 -70 -192 -70 -117 0 -204 47 -268 142 -53 79 -70
141 -77 269 -9 174 32 304 123 393 59 57 117 80 211 84 109 5 173 -22 230 -98
l38 -51 3 215 2 216 120 0 120 0 0 -580z m721 284 c109 -32 185 -99 234 -206
27 -60 48 -174 43 -240 l-3 -43 -298 -3 -298 -2 7 -38 c16 -90 64 -143 148
-162 80 -18 185 19 202 72 6 20 10 21 116 15 61 -3 112 -8 115 -11 14 -14 -34
-104 -79 -149 -61 -61 -133 -94 -236 -109 -235 -33 -427 80 -488 287 -26 87
-24 230 4 320 40 130 137 231 257 268 67 21 207 21 276 1z m4726 -14 c68 -34
105 -76 137 -154 19 -47 21 -74 24 -373 l3 -323 -125 0 -126 0 0 285 c0 308
-1 315 -54 365 -40 36 -138 41 -185 8 -19 -13 -44 -39 -55 -58 -20 -33 -21
-54 -24 -317 l-4 -283 -119 0 -119 0 0 435 0 435 115 0 115 0 0 -75 c0 -43 4
-75 10 -75 6 0 10 6 10 13 0 26 75 100 124 123 40 19 68 24 132 24 70 0 89 -4
141 -30z m-4123 3 c3 -10 42 -144 86 -298 94 -324 89 -309 96 -303 2 3 44 142
93 309 l88 304 126 3 c70 1 127 -1 127 -5 0 -4 -67 -199 -149 -433 l-149 -425
-138 0 -139 0 -117 335 c-64 184 -133 379 -152 433 l-34 97 128 0 c114 0 129
-2 134 -17z m1020 -285 c48 -167 91 -307 95 -311 4 -4 48 132 97 303 l89 310
128 0 c70 0 127 -1 127 -3 0 -2 -67 -196 -150 -431 -82 -236 -150 -430 -150
-432 0 -2 -62 -4 -138 -4 l-138 0 -88 253 c-49 138 -117 334 -152 435 l-63
182 128 0 128 0 87 -302z m940 -8 c50 -171 92 -310 95 -310 3 0 46 140 95 310
l89 310 128 0 128 0 -53 -152 c-29 -84 -98 -280 -152 -435 l-99 -283 -137 0
c-76 0 -138 1 -138 3 0 2 -67 196 -150 431 -82 236 -150 430 -150 432 0 2 57
4 128 4 l127 0 89 -310z m1326 -125 l0 -435 -120 0 -120 0 0 435 0 435 120 0
120 0 0 -435z m-526 -189 c72 -30 101 -105 68 -179 -28 -64 -91 -94 -158 -75
-78 21 -118 103 -88 177 30 75 105 108 178 77z"/>
<path d="M2921 929 c-77 -47 -106 -123 -99 -258 5 -96 25 -145 77 -195 25 -24
42 -30 88 -34 49 -3 64 0 93 20 75 51 104 126 98 257 -2 65 -9 98 -27 134 -43
88 -152 124 -230 76z"/>
<path d="M3918 940 c-43 -23 -72 -61 -86 -112 l-10 -38 184 0 c208 0 202 -3
163 77 -41 85 -161 120 -251 73z"/>
</g>
</svg>
